<svg xmlns="http://www.w3.org/2000/svg" width="33" height="27" viewBox="0 0 33 27"><g><g><path fill="#d8d8d8" d="M10.379 27C22.83 27 29.642 16.611 29.642 7.603c0-.296 0-.59-.02-.882A13.806 13.806 0 0 0 33 3.19a13.413 13.413 0 0 1-3.887 1.074A6.84 6.84 0 0 0 32.089.494a13.513 13.513 0 0 1-4.3 1.655 6.745 6.745 0 0 0-9.58-.296 6.857 6.857 0 0 0-1.958 6.514A19.186 19.186 0 0 1 2.297 1.245C.5 4.36 1.419 8.344 4.394 10.345a6.684 6.684 0 0 1-3.074-.853v.086c.002 3.245 2.274 6.04 5.432 6.683a6.69 6.69 0 0 1-3.056.116 6.782 6.782 0 0 0 6.324 4.735A13.524 13.524 0 0 1 0 23.938c3.097 2 6.699 3.062 10.379 3.057"/></g></g></svg>