<svg xmlns="http://www.w3.org/2000/svg" width="917" height="40" viewBox="0 0 917 40"><g><g><g><path fill="#fefefe" d="M301.257 0L261 40h2.74L304 0z"/></g><g><path fill="#fefefe" d="M176.258 0L136 40h2.742L179 0z"/></g><g><path fill="#fefefe" d="M191.257 0L151 40h2.74L194 0z"/></g><g><path fill="#fefefe" d="M163.257 0L123 40h2.74L166 0z"/></g><g><path fill="#fefefe" d="M205.258 0L165 40h2.74L208 0z"/></g><g><path fill="#fefefe" d="M233.258 0L193 40h2.74L236 0z"/></g><g><path fill="#fefefe" d="M259.258 0L219 40h2.74L262 0z"/></g><g><path fill="#fefefe" d="M219.258 0L179 40h2.74L222 0z"/></g><g><path fill="#fefefe" d="M150.258 0L110 40h2.74L153 0z"/></g><g><path fill="#fefefe" d="M245.258 0L205 40h2.74L248 0z"/></g><g><path fill="#fefefe" d="M67.258 0L27 40h2.742L70 0z"/></g><g><path fill="#fefefe" d="M54.258 0L14 40h2.74L57 0z"/></g><g><path fill="#fefefe" d="M81.258 0L41 40h2.74L84 0z"/></g><g><path fill="#fefefe" d="M136.258 0L96 40h2.74L139 0z"/></g><g><path fill="#fefefe" d="M95.258 0L55 40h2.74L98 0z"/></g><g><path fill="#fefefe" d="M122.257 0L82 40h2.74L125 0z"/></g><g><path fill="#fefefe" d="M109.258 0L69 40h2.74L112 0z"/></g><g><path fill="#fefefe" d="M396.258 0L356 40h2.74L399 0z"/></g><g><path fill="#fefefe" d="M423.258 0L383 40h2.74L426 0z"/></g><g><path fill="#fefefe" d="M437.258 0L397 40h2.74L440 0z"/></g><g><path fill="#fefefe" d="M451.257 0L411 40h2.74L454 0z"/></g><g><path fill="#fefefe" d="M410.257 0L370 40h2.74L413 0z"/></g><g><path fill="#fefefe" d="M464.258 0L424 40h2.74L467 0z"/></g><g><path fill="#fefefe" d="M40.258 0L0 40h2.74L43 0z"/></g><g><path fill="#fefefe" d="M273.258 0L233 40h2.74L276 0z"/></g><g><path fill="#fefefe" d="M328.258 0L288 40h2.74L331 0z"/></g><g><path fill="#fefefe" d="M314.258 0L274 40h2.742L317 0z"/></g><g><path fill="#fefefe" d="M286.258 0L246 40h2.742L289 0z"/></g><g><path fill="#fefefe" d="M355.257 0L315 40h2.74L358 0z"/></g><g><path fill="#fefefe" d="M369.255 0L329 40h2.74L372 0z"/></g><g><path fill="#fefefe" d="M341.258 0L301 40h2.74L344 0z"/></g><g><path fill="#fefefe" d="M382.258 0L342 40h2.74L385 0z"/></g><g><path fill="#fefefe" d="M739.257 0L699 40h2.74L742 0z"/></g><g><path fill="#fefefe" d="M916.807 0L877 40h2.71L917 2.528V0z"/></g><g><path fill="#fefefe" d="M615.258 0L575 40h2.742L618 0z"/></g><g><path fill="#fefefe" d="M629.257 0L589 40h2.74L632 0z"/></g><g><path fill="#fefefe" d="M601.257 0L561 40h2.74L604 0z"/></g><g><path fill="#fefefe" d="M642.258 0L602 40h2.74L645 0z"/></g><g><path fill="#fefefe" d="M671.258 0L631 40h2.74L674 0z"/></g><g><path fill="#fefefe" d="M698.258 0L658 40h2.74L701 0z"/></g><g><path fill="#fefefe" d="M657.258 0L617 40h2.74L660 0z"/></g><g><path fill="#fefefe" d="M588.258 0L548 40h2.74L591 0z"/></g><g><path fill="#fefefe" d="M684.258 0L644 40h2.74L687 0z"/></g><g><path fill="#fefefe" d="M505.258 0L465 40h2.742L508 0z"/></g><g><path fill="#fefefe" d="M492.255 0L452 40h2.74L495 0z"/></g><g><path fill="#fefefe" d="M519.258 0L479 40h2.74L522 0z"/></g><g><path fill="#fefefe" d="M574.258 0L534 40h2.74L577 0z"/></g><g><path fill="#fefefe" d="M533.258 0L493 40h2.74L536 0z"/></g><g><path fill="#fefefe" d="M560.258 0L520 40h2.742L563 0z"/></g><g><path fill="#fefefe" d="M546.258 0L506 40h2.74L549 0z"/></g><g><path fill="#fefefe" d="M834.258 0L794 40h2.74L837 0z"/></g><g><path fill="#fefefe" d="M861.258 0L821 40h2.74L864 0z"/></g><g><path fill="#fefefe" d="M875.258 0L835 40h2.74L878 0z"/></g><g><path fill="#fefefe" d="M889.257 0L849 40h2.74L892 0z"/></g><g><path fill="#fefefe" d="M848.258 0L808 40h2.742L851 0z"/></g><g><path fill="#fefefe" d="M902.258 0L862 40h2.74L905 0z"/></g><g><path fill="#fefefe" d="M478.258 0L438 40h2.74L481 0z"/></g><g><path fill="#fefefe" d="M902 40h3.189L917 28.186V25z"/></g><g><path fill="#fefefe" d="M891 40h2.673L917 16.673V14z"/></g><g><path fill="#fefefe" d="M712.258 0L672 40h2.74L715 0z"/></g><g><path fill="#fefefe" d="M765.258 0L725 40h2.74L768 0z"/></g><g><path fill="#fefefe" d="M752.258 0L712 40h2.74L755 0z"/></g><g><path fill="#fefefe" d="M725.258 0L685 40h2.74L728 0z"/></g><g><path fill="#fefefe" d="M794.257 0L754 40h2.74L797 0z"/></g><g><path fill="#fefefe" d="M808.257 0L768 40h2.74L811 0z"/></g><g><path fill="#fefefe" d="M779.258 0L739 40h2.74L782 0z"/></g><g><path fill="#fefefe" d="M820.258 0L780 40h2.74L823 0z"/></g></g></g></svg>