<svg xmlns="http://www.w3.org/2000/svg" width="965" height="42" viewBox="0 0 965 42"><g><g><g><path fill="#fefefe" d="M688.13 0L646 42h2.867L691 0z"/></g><g><path fill="#fefefe" d="M818.13 0L776 42h2.867L821 0z"/></g><g><path fill="#fefefe" d="M803.13 0L761 42h2.868L806 0z"/></g><g><path fill="#fefefe" d="M832.13 0L790 42h2.867L835 0z"/></g><g><path fill="#fefefe" d="M789.13 0L747 42h2.867L792 0z"/></g><g><path fill="#fefefe" d="M760.13 0L718 42h2.867L763 0z"/></g><g><path fill="#fefefe" d="M731.13 0L689 42h2.868L734 0z"/></g><g><path fill="#fefefe" d="M774.13 0L732 42h2.87L777 0z"/></g><g><path fill="#fefefe" d="M847.13 0L805 42h2.867L850 0z"/></g><g><path fill="#fefefe" d="M746.13 0L704 42h2.868L749 0z"/></g><g><path fill="#fefefe" d="M933.13 0L891 42h2.867L936 0z"/></g><g><path fill="#fefefe" d="M948.13 0L906 42h2.867L951 0z"/></g><g><path fill="#fefefe" d="M919.13 0L877 42h2.867L922 0z"/></g><g><path fill="#fefefe" d="M861.13 0L819 42h2.867L864 0z"/></g><g><path fill="#fefefe" d="M903.13 0L861 42h2.868L906 0z"/></g><g><path fill="#fefefe" d="M876.13 0L834 42h2.867L879 0z"/></g><g><path fill="#fefefe" d="M890.13 0L848 42h2.867L893 0z"/></g><g><path fill="#fefefe" d="M587.13 0L545 42h2.867L590 0z"/></g><g><path fill="#fefefe" d="M558.13 0L516 42h2.87L561 0z"/></g><g><path fill="#fefefe" d="M543.13 0L501 42h2.87L546 0z"/></g><g><path fill="#fefefe" d="M530.13 0L488 42h2.867L533 0z"/></g><g><path fill="#fefefe" d="M572.13 0L530 42h2.867L575 0z"/></g><g><path fill="#fefefe" d="M514.13 0L472 42h2.87L517 0z"/></g><g><path fill="#fefefe" d="M962.13 0L920 42h2.87L965 0z"/></g><g><path fill="#fefefe" d="M717.13 0L675 42h2.867L720 0z"/></g><g><path fill="#fefefe" d="M659.13 0L617 42h2.867L662 0z"/></g><g><path fill="#fefefe" d="M673.13 0L631 42h2.867L676 0z"/></g><g><path fill="#fefefe" d="M702.13 0L660 42h2.867L705 0z"/></g><g><path fill="#fefefe" d="M630.13 0L588 42h2.867L633 0z"/></g><g><path fill="#fefefe" d="M616.13 0L574 42h2.868L619 0z"/></g><g><path fill="#fefefe" d="M644.13 0L602 42h2.867L647 0z"/></g><g><path fill="#fefefe" d="M601.13 0L559 42h2.867L604 0z"/></g><g><path fill="#fefefe" d="M227.13 0L185 42h2.867L230 0z"/></g><g><path fill="#fefefe" d="M39.153 0L0 39.345V42h.203L42 0z"/></g><g><path fill="#fefefe" d="M357.13 0L315 42h2.867L360 0z"/></g><g><path fill="#fefefe" d="M342.127 0L300 42h2.867L345 0z"/></g><g><path fill="#fefefe" d="M370.13 0L328 42h2.867L373 0z"/></g><g><path fill="#fefefe" d="M328.13 0L286 42h2.867L331 0z"/></g><g><path fill="#fefefe" d="M299.13 0L257 42h2.867L302 0z"/></g><g><path fill="#fefefe" d="M270.13 0L228 42h2.868L273 0z"/></g><g><path fill="#fefefe" d="M314.13 0L272 42h2.867L317 0z"/></g><g><path fill="#fefefe" d="M384.13 0L342 42h2.867L387 0z"/></g><g><path fill="#fefefe" d="M285.13 0L243 42h2.868L288 0z"/></g><g><path fill="#fefefe" d="M471.13 0L429 42h2.867L474 0z"/></g><g><path fill="#fefefe" d="M486.13 0L444 42h2.867L489 0z"/></g><g><path fill="#fefefe" d="M457.13 0L415 42h2.867L460 0z"/></g><g><path fill="#fefefe" d="M399.13 0L357 42h2.867L402 0z"/></g><g><path fill="#fefefe" d="M442.13 0L400 42h2.868L445 0z"/></g><g><path fill="#fefefe" d="M415.13 0L373 42h2.867L418 0z"/></g><g><path fill="#fefefe" d="M429.13 0L387 42h2.867L432 0z"/></g><g><path fill="#fefefe" d="M126.13 0L84 42h2.867L129 0z"/></g><g><path fill="#fefefe" d="M97.13 0L55 42h2.87L100 0z"/></g><g><path fill="#fefefe" d="M83.13 0L41 42h2.868L86 0z"/></g><g><path fill="#fefefe" d="M68.13 0L26 42h2.867L71 0z"/></g><g><path fill="#fefefe" d="M111.13 0L69 42h2.867L114 0z"/></g><g><path fill="#fefefe" d="M54.13 0L12 42h2.87L57 0z"/></g><g><path fill="#fefefe" d="M500.13 0L458 42h2.87L503 0z"/></g><g><path fill="#fefefe" d="M12.6 0L0 12.601V16L16 0z"/></g><g><path fill="#fefefe" d="M25.121 0L0 25.121V28L28 0z"/></g><g><path fill="#fefefe" d="M256.13 0L214 42h2.867L259 0z"/></g><g><path fill="#fefefe" d="M198.13 0L156 42h2.867L201 0z"/></g><g><path fill="#fefefe" d="M213.13 0L171 42h2.867L216 0z"/></g><g><path fill="#fefefe" d="M241.13 0L199 42h2.867L244 0z"/></g><g><path fill="#fefefe" d="M169.13 0L127 42h2.867L172 0z"/></g><g><path fill="#fefefe" d="M155.13 0L113 42h2.868L158 0z"/></g><g><path fill="#fefefe" d="M184.13 0L142 42h2.867L187 0z"/></g><g><path fill="#fefefe" d="M140.13 0L98 42h2.87L143 0z"/></g></g></g></svg>