<svg xmlns="http://www.w3.org/2000/svg" width="479" height="46" viewBox="0 0 479 46"><g><g><g><path fill="none" stroke="#fff" stroke-linecap="square" stroke-miterlimit="20" d="M225.03 45l44-44"/></g><g><path fill="none" stroke="#fff" stroke-linecap="square" stroke-miterlimit="20" d="M281.03 45l44-44"/></g><g><path fill="none" stroke="#fff" stroke-linecap="square" stroke-miterlimit="20" d="M336.03 45l44-44"/></g><g><path fill="none" stroke="#fff" stroke-linecap="square" stroke-miterlimit="20" d="M392.03 45l44-44"/></g><g><path fill="none" stroke="#fff" stroke-linecap="square" stroke-miterlimit="20" d="M169.03 45l44-44"/></g><g><path fill="none" stroke="#fff" stroke-linecap="square" stroke-miterlimit="20" d="M252.03 45l44-44"/></g><g><path fill="none" stroke="#fff" stroke-linecap="square" stroke-miterlimit="20" d="M308.03 45l44-44"/></g><g><path fill="none" stroke="#fff" stroke-linecap="square" stroke-miterlimit="20" d="M364.03 45l44-44"/></g><g><path fill="none" stroke="#fff" stroke-linecap="square" stroke-miterlimit="20" d="M420.03 45l44-44"/></g><g><path fill="none" stroke="#fff" stroke-linecap="square" stroke-miterlimit="20" d="M197.03 45l44-44"/></g><g><path fill="none" stroke="#fff" stroke-linecap="square" stroke-miterlimit="20" d="M238.03 45l44-44"/></g><g><path fill="none" stroke="#fff" stroke-linecap="square" stroke-miterlimit="20" d="M295.03 45l44-44"/></g><g><path fill="none" stroke="#fff" stroke-linecap="square" stroke-miterlimit="20" d="M350.03 45l44-44"/></g><g><path fill="none" stroke="#fff" stroke-linecap="square" stroke-miterlimit="20" d="M406.03 45l44-44"/></g><g><path fill="none" stroke="#fff" stroke-linecap="square" stroke-miterlimit="20" d="M183.03 45l44-44"/></g><g><path fill="none" stroke="#fff" stroke-linecap="square" stroke-miterlimit="20" d="M267.03 45l44-44"/></g><g><path fill="none" stroke="#fff" stroke-linecap="square" stroke-miterlimit="20" d="M322.03 45l44-44"/></g><g><path fill="none" stroke="#fff" stroke-linecap="square" stroke-miterlimit="20" d="M378.03 45l44-44"/></g><g><path fill="none" stroke="#fff" stroke-linecap="square" stroke-miterlimit="20" d="M155.03 45l44-44"/></g><g><path fill="none" stroke="#fff" stroke-linecap="square" stroke-miterlimit="20" d="M434.03 45l44-44"/></g><g><path fill="none" stroke="#fff" stroke-linecap="square" stroke-miterlimit="20" d="M211.03 45l44-44"/></g><g><path fill="none" stroke="#fff" stroke-linecap="square" stroke-miterlimit="20" d="M114.03 45l44-44"/></g><g><path fill="none" stroke="#fff" stroke-linecap="square" stroke-miterlimit="20" d="M141.03 45l44-44"/></g><g><path fill="none" stroke="#fff" stroke-linecap="square" stroke-miterlimit="20" d="M128.03 45l44-44"/></g><g><path fill="none" stroke="#fff" stroke-linecap="square" stroke-miterlimit="20" d="M100.03 45l44-44"/></g><g><path fill="none" stroke="#fff" stroke-linecap="square" stroke-miterlimit="20" d="M2.03 45l44-44"/></g><g><path fill="none" stroke="#fff" stroke-linecap="square" stroke-miterlimit="20" d="M57.03 45l44-44"/></g><g><path fill="none" stroke="#fff" stroke-linecap="square" stroke-miterlimit="20" d="M30.03 45l44-44"/></g><g><path fill="none" stroke="#fff" stroke-linecap="square" stroke-miterlimit="20" d="M86.03 45l44-44"/></g><g><path fill="none" stroke="#fff" stroke-linecap="square" stroke-miterlimit="20" d="M16.03 45l44-44"/></g><g><path fill="none" stroke="#fff" stroke-linecap="square" stroke-miterlimit="20" d="M71.03 45l44-44"/></g><g><path fill="none" stroke="#fff" stroke-linecap="square" stroke-miterlimit="20" d="M44.03 45l44-44"/></g></g></g></svg>