<svg xmlns="http://www.w3.org/2000/svg" width="22" height="20" viewBox="0 0 22 20"><g><g><path fill="#d8d8d8" d="M.275 5.102l-.01-.01a.989.989 0 0 1 .042-1.39L3.587.553A2.003 2.003 0 0 1 6.343.545l3.34 3.178a.99.99 0 0 1 .044 1.396l-.003.003a.99.99 0 0 1-1.407.04L6.863 3.757a.501.501 0 0 0-.85.36V19a1 1 0 0 1-2 0V4.103a.5.5 0 0 0-.845-.363L1.677 5.152zm21.45 9.796l.01.01a.989.989 0 0 1-.042 1.39l-3.28 3.149a2.002 2.002 0 0 1-2.755.007l-3.34-3.177a.991.991 0 0 1-.043-1.397l.005-.002a.996.996 0 0 1 1.411-.04l1.463 1.404c.318.306.864.081.864-.36V1c0-.55.438-.997.989-1 .55.003 1.012.45 1.012 1v14.897c0 .44.51.665.829.363l1.475-1.412zM17.003 0zm.008 0h-.008z"/></g></g></svg>