<svg xmlns="http://www.w3.org/2000/svg" width="30" height="30" viewBox="0 0 30 30"><g><g><path fill="#d8d8d8" d="M30 2.72v24.56A2.72 2.72 0 0 1 27.28 30H2.72A2.72 2.72 0 0 1 0 27.28V2.72A2.72 2.72 0 0 1 2.72 0h24.56zM7.895 7.494c0 1.117.898 1.97 1.973 1.97a1.963 1.963 0 0 0 1.974-1.97c0-1.115-.9-1.968-1.974-1.968zM26.043 19.41l-1.195-.46c-.984 2.711-2.545 2.426-2.008.28l.869-3.124c.877-2.95-.216-5.62-2.823-5.62-1.602 0-3.23 1.285-4.044 2.797l.597-3.019h-4.64l-.652 3.007h2.17l-1.336 5.287c-1.05 2.323-2.979 2.32-3.22 2.266-.9-.202-.703-1.311-.463-2.218l2.036-8.342H6.177l-.65 3.007H7.67l-1.384 5.598c-.54 2.284.195 3.93 2.551 3.93 1.53 0 2.772-1.011 3.665-2.473l-.545 1.967h3.039l1.737-6.723c.434-1.756 1.275-2.454 2.551-2.454 1.45 0 1.913 1.26 1.493 2.621l-.896 3.188c-.62 2.1.165 3.97 2.579 3.97z"/></g></g></svg>