<svg xmlns="http://www.w3.org/2000/svg" width="365" height="20" viewBox="0 0 365 20"><g><g><g><path fill="#d0d3d4" d="M235.294 0L215.5 19.765h1.348L236.642 0z"/></g><g><path fill="#d0d3d4" d="M296.054 0L276.26 19.765h1.35L297.402 0z"/></g><g><path fill="#d0d3d4" d="M289.284 0L269.49 19.765h1.348L290.632 0z"/></g><g><path fill="#d0d3d4" d="M302.612 0L282.82 19.765h1.346L303.96 0z"/></g><g><path fill="#d0d3d4" d="M282.502 0L262.71 19.765h1.346L283.85 0z"/></g><g><path fill="#d0d3d4" d="M268.954 0L249.16 19.765h1.348L270.302 0z"/></g><g><path fill="#d0d3d4" d="M255.622 0L235.83 19.765h1.348L256.97 0z"/></g><g><path fill="#d0d3d4" d="M275.734 0L255.94 19.765h1.348L277.082 0z"/></g><g><path fill="#d0d3d4" d="M309.384 0L289.59 19.765h1.348L310.73 0z"/></g><g><path fill="#d0d3d4" d="M262.394 0L242.6 19.765h1.348L263.742 0z"/></g><g><path fill="#d0d3d4" d="M349.824 0L330.03 19.765h1.348L351.172 0z"/></g><g><path fill="#d0d3d4" d="M356.602 0L336.81 19.765h1.346L357.95 0z"/></g><g><path fill="#d0d3d4" d="M343.044 0L323.25 19.765h1.348L344.392 0z"/></g><g><path fill="#d0d3d4" d="M316.162 0L296.37 19.765h1.348L317.51 0z"/></g><g><path fill="#d0d3d4" d="M336.274 0L316.48 19.765h1.348L337.622 0z"/></g><g><path fill="#d0d3d4" d="M322.934 0L303.14 19.765h1.348L324.282 0z"/></g><g><path fill="#d0d3d4" d="M329.714 0L309.92 19.765h1.348L331.062 0z"/></g><g><path fill="#d0d3d4" d="M188.304 0L168.51 19.765h1.348L189.652 0z"/></g><g><path fill="#d0d3d4" d="M174.754 0L154.96 19.765h1.348L176.102 0z"/></g><g><path fill="#d0d3d4" d="M167.982 0L148.19 19.765h1.346L169.33 0z"/></g><g><path fill="#d0d3d4" d="M161.424 0L141.63 19.765h1.348L162.772 0z"/></g><g><path fill="#d0d3d4" d="M181.532 0L161.74 19.765h1.348L182.88 0z"/></g><g><path fill="#d0d3d4" d="M154.642 0L134.85 19.765h1.348L155.99 0z"/></g><g><path fill="#d0d3d4" d="M363.372 0L343.58 19.765h1.346L364.72 0z"/></g><g><path fill="#d0d3d4" d="M248.844 0L229.05 19.765h1.348L250.192 0z"/></g><g><path fill="#d0d3d4" d="M221.962 0L202.17 19.765h1.346L223.31 0z"/></g><g><path fill="#d0d3d4" d="M228.734 0L208.94 19.765h1.35L230.082 0z"/></g><g><path fill="#d0d3d4" d="M242.072 0L222.28 19.765h1.346L243.42 0z"/></g><g><path fill="#d0d3d4" d="M208.414 0L188.62 19.765h1.348L209.762 0z"/></g><g><path fill="#d0d3d4" d="M201.634 0L181.84 19.765h1.35L202.982 0z"/></g><g><path fill="#d0d3d4" d="M215.194 0L195.4 19.765h1.348L216.54 0z"/></g><g><path fill="#d0d3d4" d="M195.082 0L175.29 19.765h1.348L196.43 0z"/></g><g><path fill="#d0d3d4" d="M19.792 0L0 19.765h1.348L21.14 0z"/></g><g><path fill="#d0d3d4" d="M80.552 0L60.76 19.765h1.346L81.9 0z"/></g><g><path fill="#d0d3d4" d="M73.784 0L53.99 19.765h1.348L75.132 0z"/></g><g><path fill="#d0d3d4" d="M87.112 0L67.32 19.765h1.346L88.46 0z"/></g><g><path fill="#d0d3d4" d="M67.002 0L47.21 19.765h1.346L68.35 0z"/></g><g><path fill="#d0d3d4" d="M53.454 0L33.66 19.765h1.348L54.802 0z"/></g><g><path fill="#d0d3d4" d="M40.114 0L20.32 19.765h1.35L41.462 0z"/></g><g><path fill="#d0d3d4" d="M60.234 0L40.44 19.765h1.348L61.582 0z"/></g><g><path fill="#d0d3d4" d="M93.884 0L74.09 19.765h1.348L95.232 0z"/></g><g><path fill="#d0d3d4" d="M46.894 0L27.1 19.765h1.348L48.242 0z"/></g><g><path fill="#d0d3d4" d="M134.324 0L114.53 19.765h1.348L135.672 0z"/></g><g><path fill="#d0d3d4" d="M141.094 0L121.3 19.765h1.348L142.442 0z"/></g><g><path fill="#d0d3d4" d="M127.544 0L107.75 19.765h1.348L128.892 0z"/></g><g><path fill="#d0d3d4" d="M100.662 0L80.87 19.765h1.348L102.01 0z"/></g><g><path fill="#d0d3d4" d="M120.772 0L100.98 19.765h1.348L122.12 0z"/></g><g><path fill="#d0d3d4" d="M107.434 0L87.64 19.765h1.348L108.782 0z"/></g><g><path fill="#d0d3d4" d="M114.214 0L94.42 19.765h1.35L115.562 0z"/></g><g><path fill="#d0d3d4" d="M147.874 0L128.08 19.765h1.348L149.222 0z"/></g><g><path fill="#d0d3d4" d="M33.344 0L13.55 19.765h1.348L34.692 0z"/></g><g><path fill="#d0d3d4" d="M26.564 0L6.77 19.765h1.348L27.912 0z"/></g></g></g></svg>