<svg xmlns="http://www.w3.org/2000/svg" width="38" height="27" viewBox="0 0 38 27"><g><g><path fill="#d8d8d8" d="M36.273 2.281C35.62 1.408 34.507.73 33.323.504 29.84-.167 8.114-.169 4.633.504c-.95.18-1.796.618-2.522 1.296C-.951 4.685.009 20.156.747 22.663c.31 1.084.712 1.867 1.217 2.38.651.68 1.542 1.147 2.566 1.357 2.868.602 17.64.938 28.732.09a4.952 4.952 0 0 0 2.64-1.371c2.831-2.874 2.638-19.214.37-22.838"/></g><g><path class="play" fill="#fff" d="M15 8c3.717 1.838 6.595 3.613 10 5.526-2.808 1.637-6.283 3.472-10 5.474z"/></g></g></svg>